<mxfile host="Electron" modified="2024-02-27T21:48:53.402Z" agent="Mozilla/5.0 (Macintosh; Intel Mac OS X 10_15_7) AppleWebKit/537.36 (KHTML, like Gecko) draw.io/23.1.5 Chrome/120.0.6099.109 Electron/28.1.0 Safari/537.36" etag="KLKq5R7Qu1ocK7BcjZcD" version="23.1.5" type="device">
  <diagram name="Page-1" id="iYUeugBBr5NChv6ITaWl">
    <mxGraphModel dx="602" dy="469" grid="1" gridSize="10" guides="1" tooltips="1" connect="1" arrows="1" fold="1" page="1" pageScale="1" pageWidth="850" pageHeight="1100" math="0" shadow="0">
      <root>
        <mxCell id="0" />
        <mxCell id="1" parent="0" />
        <mxCell id="1pxeR1O3IW35Xb44AVWw-38" value="" style="rounded=1;whiteSpace=wrap;html=1;fillColor=#E6FFCC;dashed=1;dashPattern=12 12;strokeColor=none;fillOpacity=50;" vertex="1" parent="1">
          <mxGeometry x="669" y="300" width="91" height="230" as="geometry" />
        </mxCell>
        <mxCell id="1pxeR1O3IW35Xb44AVWw-39" value="" style="rounded=1;whiteSpace=wrap;html=1;fillColor=#FFE6CC;dashed=1;dashPattern=12 12;strokeColor=none;fillOpacity=50;" vertex="1" parent="1">
          <mxGeometry x="180" y="300" width="480" height="230" as="geometry" />
        </mxCell>
        <mxCell id="1pxeR1O3IW35Xb44AVWw-40" value="Node task" style="text;html=1;align=center;verticalAlign=middle;resizable=0;points=[];autosize=1;strokeColor=none;fillColor=none;fontFamily=Comic Sans MS;" vertex="1" parent="1">
          <mxGeometry x="179.25" y="310" width="80" height="30" as="geometry" />
        </mxCell>
        <mxCell id="1pxeR1O3IW35Xb44AVWw-41" value="Pair task" style="text;html=1;align=center;verticalAlign=middle;resizable=0;points=[];autosize=1;strokeColor=none;fillColor=none;fontFamily=Comic Sans MS;" vertex="1" parent="1">
          <mxGeometry x="259.25" y="310" width="70" height="30" as="geometry" />
        </mxCell>
        <mxCell id="1pxeR1O3IW35Xb44AVWw-42" value="Count task" style="text;html=1;align=center;verticalAlign=middle;resizable=0;points=[];autosize=1;strokeColor=none;fillColor=none;fontFamily=Comic Sans MS;" vertex="1" parent="1">
          <mxGeometry x="340" y="310" width="80" height="30" as="geometry" />
        </mxCell>
        <mxCell id="1pxeR1O3IW35Xb44AVWw-43" value="Bool task" style="text;html=1;align=center;verticalAlign=middle;resizable=0;points=[];autosize=1;strokeColor=none;fillColor=none;fontFamily=Comic Sans MS;" vertex="1" parent="1">
          <mxGeometry x="420" y="310" width="70" height="30" as="geometry" />
        </mxCell>
        <mxCell id="1pxeR1O3IW35Xb44AVWw-44" value="Path task" style="text;html=1;align=center;verticalAlign=middle;resizable=0;points=[];autosize=1;strokeColor=none;fillColor=none;fontFamily=Comic Sans MS;" vertex="1" parent="1">
          <mxGeometry x="500" y="310" width="80" height="30" as="geometry" />
        </mxCell>
        <mxCell id="1pxeR1O3IW35Xb44AVWw-45" value="Graph task" style="text;html=1;align=center;verticalAlign=middle;resizable=0;points=[];autosize=1;strokeColor=none;fillColor=none;fontFamily=Comic Sans MS;" vertex="1" parent="1">
          <mxGeometry x="580" y="310" width="80" height="30" as="geometry" />
        </mxCell>
        <mxCell id="1pxeR1O3IW35Xb44AVWw-46" value="" style="rounded=1;whiteSpace=wrap;html=1;fillStyle=auto;gradientColor=none;fillColor=default;fillOpacity=50;strokeColor=default;" vertex="1" parent="1">
          <mxGeometry x="180" y="340" width="580" height="70" as="geometry" />
        </mxCell>
        <mxCell id="1pxeR1O3IW35Xb44AVWw-47" value="" style="rounded=1;whiteSpace=wrap;html=1;fillStyle=auto;gradientColor=none;fillColor=default;fillOpacity=50;" vertex="1" parent="1">
          <mxGeometry x="180" y="430" width="580" height="90" as="geometry" />
        </mxCell>
        <mxCell id="1pxeR1O3IW35Xb44AVWw-48" value="Single&lt;br&gt;hop" style="text;html=1;align=center;verticalAlign=middle;resizable=0;points=[];autosize=1;strokeColor=none;fillColor=none;fontFamily=Comic Sans MS;" vertex="1" parent="1">
          <mxGeometry x="120" y="355" width="60" height="40" as="geometry" />
        </mxCell>
        <mxCell id="1pxeR1O3IW35Xb44AVWw-49" value="Multi&lt;br&gt;hop" style="text;html=1;align=center;verticalAlign=middle;resizable=0;points=[];autosize=1;strokeColor=none;fillColor=none;fontFamily=Comic Sans MS;" vertex="1" parent="1">
          <mxGeometry x="125" y="455" width="50" height="40" as="geometry" />
        </mxCell>
        <mxCell id="1pxeR1O3IW35Xb44AVWw-50" value="Find neighbors" style="rounded=1;whiteSpace=wrap;html=1;fontSize=10;fontFamily=Comic Sans MS;fillOpacity=50;fillColor=#FF9999;" vertex="1" parent="1">
          <mxGeometry x="188.5" y="360" width="61.5" height="30" as="geometry" />
        </mxCell>
        <mxCell id="1pxeR1O3IW35Xb44AVWw-51" value="Nodes shared neighbors" style="rounded=1;whiteSpace=wrap;html=1;fontSize=10;fontFamily=Comic Sans MS;fillOpacity=50;fillColor=#FF9999;" vertex="1" parent="1">
          <mxGeometry x="184.25" y="440" width="70" height="30" as="geometry" />
        </mxCell>
        <mxCell id="1pxeR1O3IW35Xb44AVWw-52" value="N-hop neighbors" style="rounded=1;whiteSpace=wrap;html=1;fontSize=10;fontFamily=Comic Sans MS;fillOpacity=50;fillColor=#FF9999;" vertex="1" parent="1">
          <mxGeometry x="193.5" y="480" width="51.5" height="30" as="geometry" />
        </mxCell>
        <mxCell id="1pxeR1O3IW35Xb44AVWw-53" value="Find pairs" style="rounded=1;whiteSpace=wrap;html=1;fontSize=10;fontFamily=Comic Sans MS;fillOpacity=50;fillColor=#FFCC99;" vertex="1" parent="1">
          <mxGeometry x="268.75" y="360" width="51" height="30" as="geometry" />
        </mxCell>
        <mxCell id="1pxeR1O3IW35Xb44AVWw-54" value="Pairs shared neighbors" style="rounded=1;whiteSpace=wrap;html=1;fontSize=10;fontFamily=Comic Sans MS;fillOpacity=50;fillColor=#FFCC99;" vertex="1" parent="1">
          <mxGeometry x="261.25" y="452.5" width="66" height="27.5" as="geometry" />
        </mxCell>
        <mxCell id="1pxeR1O3IW35Xb44AVWw-55" value="Degree count" style="rounded=1;whiteSpace=wrap;html=1;fontSize=10;fontFamily=Comic Sans MS;fillOpacity=50;fillColor=#FFFF99;" vertex="1" parent="1">
          <mxGeometry x="355" y="360" width="50" height="30" as="geometry" />
        </mxCell>
        <mxCell id="1pxeR1O3IW35Xb44AVWw-56" value="Node count within N-hop" style="rounded=1;whiteSpace=wrap;html=1;fontSize=10;fontFamily=Comic Sans MS;fillOpacity=50;fillColor=#FFFF99;" vertex="1" parent="1">
          <mxGeometry x="347.5" y="440" width="65" height="30" as="geometry" />
        </mxCell>
        <mxCell id="1pxeR1O3IW35Xb44AVWw-57" value="Path count" style="rounded=1;whiteSpace=wrap;html=1;fontSize=10;fontFamily=Comic Sans MS;fillOpacity=50;fillColor=#FFFF99;" vertex="1" parent="1">
          <mxGeometry x="357.5" y="480" width="45" height="30" as="geometry" />
        </mxCell>
        <mxCell id="1pxeR1O3IW35Xb44AVWw-58" value="Linked by edge" style="rounded=1;whiteSpace=wrap;html=1;fontSize=10;fontFamily=Comic Sans MS;fillOpacity=50;fillColor=#CCFF99;" vertex="1" parent="1">
          <mxGeometry x="422" y="360" width="70" height="30" as="geometry" />
        </mxCell>
        <mxCell id="1pxeR1O3IW35Xb44AVWw-59" value="Has path" style="rounded=1;whiteSpace=wrap;html=1;fontSize=10;fontFamily=Comic Sans MS;fillOpacity=50;fillColor=#CCFF99;" vertex="1" parent="1">
          <mxGeometry x="430" y="440" width="55" height="30" as="geometry" />
        </mxCell>
        <mxCell id="1pxeR1O3IW35Xb44AVWw-60" value="Find paths" style="rounded=1;whiteSpace=wrap;html=1;fontSize=10;fontFamily=Comic Sans MS;fillOpacity=50;fillColor=#99FFFF;" vertex="1" parent="1">
          <mxGeometry x="514.75" y="440" width="50.5" height="30" as="geometry" />
        </mxCell>
        <mxCell id="1pxeR1O3IW35Xb44AVWw-61" value="Shortest path" style="rounded=1;whiteSpace=wrap;html=1;fontSize=10;fontFamily=Comic Sans MS;fillOpacity=50;fillColor=#99FFFF;" vertex="1" parent="1">
          <mxGeometry x="514.75" y="480" width="50.5" height="30" as="geometry" />
        </mxCell>
        <mxCell id="1pxeR1O3IW35Xb44AVWw-62" value="1-hop ego graph" style="rounded=1;whiteSpace=wrap;html=1;fontSize=10;fontFamily=Comic Sans MS;fillOpacity=50;fillColor=#CC99FF;" vertex="1" parent="1">
          <mxGeometry x="590" y="360" width="60" height="30" as="geometry" />
        </mxCell>
        <mxCell id="1pxeR1O3IW35Xb44AVWw-63" value="2-hop ego graph" style="rounded=1;whiteSpace=wrap;html=1;fontSize=10;fontFamily=Comic Sans MS;fillOpacity=50;fillColor=#CC99FF;" vertex="1" parent="1">
          <mxGeometry x="590" y="451.25" width="60" height="30" as="geometry" />
        </mxCell>
        <mxCell id="1pxeR1O3IW35Xb44AVWw-64" value="Link prediction" style="rounded=1;whiteSpace=wrap;html=1;fontSize=10;fontFamily=Comic Sans MS;fillOpacity=50;fillColor=#FF99FF;" vertex="1" parent="1">
          <mxGeometry x="679.5" y="451.25" width="70" height="30" as="geometry" />
        </mxCell>
        <mxCell id="1pxeR1O3IW35Xb44AVWw-65" value="&lt;font face=&quot;Comic Sans MS&quot; style=&quot;font-size: 16px;&quot;&gt;Structure-aware&lt;/font&gt;" style="text;html=1;align=center;verticalAlign=middle;resizable=0;points=[];autosize=1;strokeColor=none;fillColor=none;" vertex="1" parent="1">
          <mxGeometry x="345" y="260" width="150" height="30" as="geometry" />
        </mxCell>
        <mxCell id="1pxeR1O3IW35Xb44AVWw-66" value="&lt;font face=&quot;Comic Sans MS&quot; style=&quot;font-size: 16px;&quot;&gt;Inductive&lt;br&gt;reasoning&lt;/font&gt;" style="text;html=1;align=center;verticalAlign=middle;resizable=0;points=[];autosize=1;strokeColor=none;fillColor=none;" vertex="1" parent="1">
          <mxGeometry x="664.5" y="250" width="100" height="50" as="geometry" />
        </mxCell>
      </root>
    </mxGraphModel>
  </diagram>
</mxfile>
